<svg width="83" height="84" viewBox="0 0 83 84" fill="none" xmlns="http://www.w3.org/2000/svg">
<path d="M52.826 34.8181L51.3694 33.1966L49.9304 34.6933L51.3549 39.6614L52.826 34.8181Z" fill="#DA1A32"/>
<path d="M47.1448 27.7317L46.1287 26.0141L41.0354 26.8106L45.7728 29.1389L47.1448 27.7317Z" fill="#231F20"/>
<path d="M49.465 34.5558L48.8856 32.5332L47.2218 32.8024L45.7834 38.3848L49.465 34.5558Z" fill="#DA1A32"/>
<path d="M47.4098 30.4418L45.8506 29.6758L42.5079 33.1045L46.9065 32.3924L47.4098 30.4418Z" fill="#DA1A32"/>
<circle cx="41.448" cy="42.0713" r="41.448" fill="white"/>
<mask id="mask0_10_73" style="mask-type:luminance" maskUnits="userSpaceOnUse" x="13" y="9" width="57" height="65">
<path d="M13.0888 73.5469H69.5198V9.88165H13.0888V73.5469Z" fill="white"/>
</mask>
<g mask="url(#mask0_10_73)">
<path d="M48.0539 14.9046C45.7715 16.6645 43.9262 19.0943 43.9262 19.0943L48.1887 21.2861L48.0539 14.9046Z" fill="#009ADA"/>
<path d="M38.8507 38.6895L38.5286 35.511L40.9491 33.0284L37.7858 33.5407L37.2272 32.8434C36.6716 34.7457 36.1638 36.7692 35.6736 38.9292C36.6337 38.8206 37.6843 38.7353 38.8507 38.6895Z" fill="#009ADA"/>
<path d="M51.4587 20.4649L48.4944 15.2321L48.6269 21.5217L50.365 22.457L51.4587 20.4649Z" fill="#00AA4F"/>
<path d="M48.2434 23.9063L48.2001 21.8332C48.2001 21.8332 43.6206 19.4676 43.594 19.5021L46.3723 24.1987L48.2434 23.9063Z" fill="#00AA4F"/>
<path d="M43.2997 19.887C42.0609 21.5308 41.0092 23.2863 40.0933 25.1807L45.8962 24.2736L43.2997 19.887Z" fill="#006FBA"/>
<path d="M55.1907 13.6717C55.3377 12.403 55.4927 11.1385 55.6602 9.88179C52.9189 11.3363 50.5876 12.8544 48.579 14.4743L51.7123 20.0042L55.1907 13.6717Z" fill="#009ADA"/>
<path d="M45.1238 38.8223L46.8634 32.0712L41.7136 32.9047L38.9844 35.704L39.2854 38.6737C40.9089 38.6258 42.7554 38.6558 44.8854 38.8049" fill="#009ADA"/>
<path d="M53.0569 22.3772L54.4838 21.4763C54.6221 19.2437 54.8199 17.0316 55.06 14.8382L51.9719 20.4604L53.0569 22.3772Z" fill="#00AA4F"/>
<path d="M53.6782 34.5343L52.1532 39.5556C53.1639 39.6731 53.384 39.6856 54.3299 39.771C54.0433 38.6228 53.808 36.7374 53.6782 34.5343Z" fill="#006FBA"/>
<path d="M45.5844 38.8566C45.5926 38.8568 45.6001 38.8573 45.609 38.8585C47.6397 39.0217 49.5427 39.2487 51.3396 39.4602L49.8846 34.3844L45.5844 38.8566Z" fill="#009ADA"/>
<path d="M63.8833 35.3623L65.697 33.4873C65.4983 31.9897 65.3253 30.4741 65.1812 28.9396L58.5575 26.3276C58.2129 27.3559 57.8947 28.4101 57.6017 29.4888L60.2325 33.6236L63.8833 35.3623Z" fill="#009ADA"/>
<path d="M61.9129 39.8028L62.517 38.0529L59.9516 34.0203L56.8556 32.5456C56.3393 34.9065 55.9376 37.3686 55.6472 39.9156C57.8874 40.097 59.9577 40.1262 61.9129 39.8028Z" fill="#006FBA"/>
<path d="M57.4431 30.0775C57.2736 30.7314 57.1116 31.3935 56.9595 32.0648L59.4683 33.2585L57.4431 30.0775Z" fill="#009ADA"/>
<path d="M64.7817 14.149C62.6458 16.9671 60.8758 20.2365 59.451 23.8684L64.6968 19.189C64.6874 17.5334 64.713 15.8562 64.7817 14.149Z" fill="#006FBA"/>
<path d="M63.9703 35.9342L60.7161 34.3841L63.0061 37.9835L62.4081 39.7129C63.798 39.4367 65.131 38.9671 66.4254 38.2327C66.1877 36.8587 65.9699 35.4716 65.7749 34.0686L63.9703 35.9342Z" fill="#006FBA"/>
<path d="M58.7124 25.8708L65.1316 28.4028C64.8833 25.6068 64.7343 22.7458 64.7019 19.8076L59.0947 24.8094C58.9646 25.1608 58.8348 25.5131 58.7124 25.8708Z" fill="#006FBA"/>
<path d="M32.0237 36.6221C32.2991 35.8734 32.5858 35.1357 32.8864 34.404L29.9248 35.2118L32.0237 36.6221Z" fill="#009ADA"/>
<path d="M24.3658 36.7295L23.7226 40.0174C26.4214 40.5242 28.4489 40.1642 30.971 39.6863C31.2592 38.7908 31.5528 37.925 31.857 37.0795L29.3231 35.3764L24.3658 36.7295Z" fill="#006FBA"/>
<path d="M24.001 36.3262L28.7905 35.0192L25.7098 32.9485L17.8167 37.9739C19.9999 38.9893 21.7607 39.5995 23.2955 39.9314L24.001 36.3262Z" fill="#006FBA"/>
<path d="M33.1223 33.8367C33.6632 32.5579 34.2554 31.2823 34.923 29.9664L33.3933 28.0566L26.1447 32.6719L29.3927 34.8542L33.1223 33.8367Z" fill="#009ADA"/>
<path d="M37.3639 25.5289L33.7801 27.8109L35.1508 29.522C35.8088 28.2492 36.5357 26.9338 37.3639 25.5289Z" fill="#006FBA"/>
<path d="M39.8859 25.7064L39.8515 25.689C39.8481 25.6975 39.8443 25.7056 39.8406 25.7134C38.8981 27.7427 38.0997 29.9319 37.3849 32.3109L37.9521 33.0198L41.5212 32.442L45.4307 28.4321L39.8859 25.7064Z" fill="#006FBA"/>
<path d="M45.5595 38.8816L45.5837 38.8571C45.5784 38.8565 45.5723 38.8559 45.5667 38.8553L45.5595 38.8816Z" fill="#009ADA"/>
<path d="M69.5202 40.6316C65.1646 43.7434 60.0134 43.4251 53.8575 42.5418C47.5107 41.632 42.7664 41.3617 34.0018 47.3601C42.1061 44.7075 46.0925 45.3666 53.8817 47.0871C62.6154 49.0172 67.488 45.9449 69.5202 40.6316Z" fill="#006FBA"/>
<path d="M13.0888 40.1766C24.6004 47.297 35.3097 40.3028 43.0117 41.4218C33.5416 43.3063 24.8018 54.5928 13.0888 40.1766Z" fill="#006FBA"/>
<path d="M18.8026 55.3328C18.9044 55.3328 18.9916 55.2223 19.0693 54.992C19.1224 54.8188 19.1488 54.6704 19.1488 54.5493C19.1488 54.4056 19.0482 54.2706 18.842 54.139C18.5643 53.9611 18.3629 53.8031 18.2442 53.6687L18.1888 53.6063L18.1567 53.6876C17.8786 54.3921 17.8412 54.54 17.8412 54.5922C17.8412 54.6704 17.8973 54.785 18.3119 55.0529C18.7305 55.3328 18.7771 55.3328 18.8026 55.3328Z" fill="#009ADA"/>
<path d="M19.5315 54.7528L20.0789 55.0918L20.1072 55.0534C20.188 54.9425 20.2613 54.7762 20.3323 54.5471C20.3894 54.3475 20.4174 54.2106 20.4174 54.1277C20.4174 54.0321 20.3135 53.8934 19.5603 53.5206L19.5383 53.515C19.4892 53.515 19.4333 53.5478 19.2918 53.9405C19.1608 54.3091 19.1608 54.3423 19.1608 54.3632C19.1608 54.4333 19.2031 54.5405 19.5315 54.7528Z" fill="#009ADA"/>
<path d="M20.0938 60.5965C20.0938 60.6064 20.0916 60.6141 20.087 60.6222C19.976 60.7598 19.8078 60.9122 19.5862 61.0742C19.321 61.2626 19.1087 61.3584 18.9552 61.3584C18.8011 61.3584 18.7806 61.2813 18.7806 61.2048C18.7806 61.048 18.8522 60.8017 18.9941 60.4729C19.1259 60.166 19.2603 59.9135 19.3938 59.7182C20.0014 60.3172 20.0938 60.526 20.0938 60.5965ZM20.7824 56.6649C20.7251 56.6649 20.6517 56.7105 20.5029 57.0416C20.1233 57.6659 19.7812 58.2052 19.4859 58.6469C19.0775 58.2496 18.8913 58.0543 18.8083 57.9585C18.9198 57.9438 18.9974 57.9346 19.0443 57.9303C19.1623 57.9216 19.1866 57.8654 19.1866 57.8198C19.1866 57.7671 19.1612 57.7037 18.8558 57.5096C18.6904 57.3999 18.5254 57.2925 18.3623 57.1891C18.0641 56.9711 18.0141 57.0025 17.9894 57.0178L17.956 57.047V57.0823C17.956 57.2807 17.9495 57.5531 17.9374 57.9019C17.9301 57.9489 17.9444 57.9799 17.9582 57.9985C17.9812 58.0292 18.0177 58.0464 18.072 58.0512C18.288 58.5044 18.614 58.9471 19.0422 59.3696C18.8476 59.7016 18.7117 59.9989 18.6377 60.2545C18.4631 60.8395 18.3746 61.314 18.3746 61.6634C18.3746 62.1592 18.5395 62.4343 18.8655 62.4816C18.8807 62.4839 18.8966 62.4851 18.9135 62.4851C19.0833 62.4851 19.3215 62.3632 19.6395 62.1137C19.9627 61.8575 20.1552 61.6562 20.2275 61.4973C20.3791 61.1608 20.4556 60.8073 20.4556 60.4461C20.4556 60.222 20.4248 59.9983 20.3642 59.7835C20.316 59.616 20.1499 59.3676 19.8568 59.0234C20.3675 58.2297 20.6696 57.7327 20.7542 57.5473C20.8424 57.3529 20.8867 57.132 20.8867 56.8901C20.8867 56.8335 20.8867 56.6649 20.7824 56.6649Z" fill="#009ADA"/>
<path d="M28.5232 62.1305H28.5237C28.8192 61.9421 29.0419 61.7505 29.1853 61.5591C29.5448 61.0804 29.6984 60.5757 29.642 60.0594C29.6026 59.7101 29.4085 59.3047 29.0639 58.8536C28.7217 58.4153 28.5624 58.1801 28.4922 58.0549C28.5597 58.063 28.6361 58.0669 28.7195 58.0669C28.8595 58.0669 28.8746 57.974 28.8746 57.9346C28.8746 57.8573 28.818 57.7665 28.6944 57.6494C28.3919 57.3939 28.1288 57.1787 27.9172 57.0155C27.866 56.9653 27.8244 56.9683 27.7983 56.978C27.7332 57.0049 27.712 57.1022 27.7009 57.1758C27.6672 57.4814 27.6418 57.7259 27.6249 57.9077C27.6222 57.9427 27.6312 57.974 27.6506 57.9985C27.6749 58.0286 27.7122 58.045 27.7664 58.0506C27.918 58.5438 28.1864 59.0429 28.5641 59.5349C28.9594 60.0514 29.1896 60.3945 29.2469 60.555C29.2472 60.5598 29.2578 60.6549 28.7631 60.9657C28.3886 61.1952 28.0217 61.3199 27.6754 61.334C27.424 61.3203 27.1901 61.1602 26.9796 60.8581C26.7162 60.4917 26.5257 59.9562 26.4139 59.2683C26.2159 58.0671 26.1241 57.555 25.9434 56.9284C25.1825 54.2952 25.0209 54.2952 24.9339 54.2952C24.9063 54.2952 24.8661 54.3079 24.8323 54.3657L24.7078 55.2482L24.7112 55.2617C24.9089 55.9877 25.1077 56.6624 25.3016 57.2674C25.4049 57.6153 25.4723 57.8343 25.5162 57.979C25.5776 58.1791 25.5938 58.232 25.6032 58.2898L25.7135 58.9349C25.4931 59.4202 25.1438 59.9066 24.6751 60.3785C24.5289 60.5255 24.2917 60.7337 23.9688 60.9975C23.5892 61.3082 23.147 61.5761 22.6554 61.7922C22.2738 61.9554 22.0221 62.0383 21.9069 62.0383C21.4202 62.0383 21.1721 61.8021 21.1487 61.3157C21.1194 60.7855 21.376 59.9266 21.9101 58.7642C21.9872 58.5959 22.0238 58.4679 22.0238 58.3703C22.0238 58.2778 21.9766 58.2459 21.9319 58.2459C21.8765 58.2459 21.7967 58.2865 21.6316 58.5898C21.0582 59.673 20.7681 60.6537 20.7681 61.5054C20.7681 62.6188 21.1102 63.1826 21.7856 63.1826C22.4034 63.1826 23.1639 62.8189 24.0447 62.0984C24.7953 61.4814 25.3334 60.9015 25.6446 60.3725C25.7357 60.2141 25.8133 60.0188 25.8752 59.791C26.1045 60.8411 26.3383 61.506 26.5876 61.8185C27.3584 62.7505 28.2643 62.2937 28.5232 62.1305Z" fill="#009ADA"/>
<path d="M29.2062 63.09L29.1818 63.0838C29.1185 63.0838 29.0572 63.157 28.9347 63.5313C28.8958 63.6511 28.8694 63.7372 28.8507 63.8016C28.8478 63.779 28.8418 63.7629 28.8351 63.7496C28.7877 63.6586 28.7009 63.5788 28.5778 63.5118C28.4315 63.4282 28.2827 63.3028 28.1352 63.1365L28.0796 63.0737L28.0477 63.1558C27.7738 63.8576 27.7385 64.0146 27.7385 64.0749C27.7385 64.1467 27.7801 64.2592 28.1063 64.4832C28.4054 64.6969 28.4649 64.7148 28.497 64.7148C28.6066 64.7148 28.6946 64.5742 28.7739 64.2706C28.7975 64.1807 28.8143 64.1073 28.8266 64.0465C28.8687 64.1294 29.0256 64.2883 29.6188 64.6642L29.6572 64.6888L29.6862 64.6509C29.7675 64.5435 29.8412 64.3812 29.912 64.1522C29.9737 63.9528 30.0037 63.8151 30.0037 63.7303C30.0037 63.6341 29.9092 63.4827 29.2062 63.09Z" fill="#009ADA"/>
<path d="M42.0012 59.6166C40.8976 60.2279 39.8071 60.6436 38.757 60.8491C38.5447 60.2851 38.3746 59.8744 38.2518 59.6299C38.2491 59.6227 38.245 59.6108 38.245 59.587C38.245 59.4748 38.3147 59.339 38.4516 59.1816C38.5898 59.0234 38.7165 58.9374 38.8278 58.9248C38.9511 58.9109 39.0761 58.9028 39.1999 58.9028C39.632 58.9028 40.1584 59.0135 40.7637 59.2298C41.3247 59.4282 41.7396 59.5576 42.0012 59.6166ZM44.0479 58.9144L44.0292 58.8864L44.0014 58.8816C43.3902 58.8101 42.4856 58.5947 41.3135 58.2399C40.2452 57.9152 39.6003 57.7641 39.3494 57.7794C38.9129 57.8045 38.547 58.0085 38.261 58.3882C37.9764 58.7643 37.8304 59.2113 37.8262 59.7153C37.8262 59.9129 37.9426 60.3172 38.182 60.9504C37.9532 60.9743 37.7457 60.9873 37.5634 60.9907C37.3063 60.9828 37.0665 60.8234 36.8517 60.5142C36.5879 60.1478 36.3972 59.6121 36.2857 58.9248C36.2386 58.6397 36.1998 58.3931 36.165 58.1723C36.0538 57.4674 35.9869 57.0419 35.8476 56.5597C35.0868 53.9263 34.925 53.9263 34.8383 53.9263C34.8104 53.9263 34.7705 53.9387 34.7362 53.997L34.6117 54.8794L34.6156 54.8927C34.8126 55.6185 35.0116 56.2938 35.2058 56.8976C35.4319 57.6585 35.4558 57.819 35.4701 57.9152L35.5854 58.5891C35.3649 59.0761 35.0153 59.5619 34.5469 60.0348C34.4001 60.1808 34.162 60.389 33.8401 60.6542C33.4609 60.9643 33.0184 61.231 32.5269 61.4476C32.1458 61.6108 31.8936 61.6931 31.7784 61.6931C31.2919 61.6931 31.0443 61.458 31.0202 60.971C30.9916 60.4406 31.2479 59.5822 31.7818 58.4197C31.8587 58.2515 31.8962 58.1226 31.8962 58.0266C31.8962 57.9345 31.846 57.9013 31.8039 57.9013C31.748 57.9013 31.669 57.942 31.5036 58.2459C30.9304 59.328 30.6393 60.3087 30.6393 61.1611C30.6393 62.2741 30.9822 62.8391 31.6576 62.8391C32.2758 62.8391 33.0359 62.4744 33.9165 61.7533C34.6671 61.1366 35.2049 60.5567 35.5161 60.0278C35.6077 59.8684 35.6848 59.6749 35.747 59.4464C35.9566 60.3879 36.2059 61.1022 36.4557 61.4702C37.0914 62.4055 37.9975 62.1667 38.4336 62.0512C38.4694 62.0419 38.5026 62.033 38.5314 62.0267C38.5519 62.1279 38.5625 62.2208 38.5626 62.2981C38.5487 62.4252 38.5603 62.5074 38.5991 62.5573C38.6225 62.5872 38.6549 62.6029 38.6922 62.6029C38.7714 62.6029 38.8154 62.4957 38.83 62.4607C38.9021 62.289 38.9366 62.1165 38.9327 61.9473C39.7201 61.7601 40.6887 61.3463 41.8124 60.7149C42.7854 60.1684 43.4257 59.8984 43.7188 59.9198C43.7909 59.9252 43.8545 59.8487 43.9654 59.4249C44.0827 58.9793 44.0641 58.9445 44.0479 58.9144Z" fill="#009ADA"/>
<path d="M41.4626 63.2847C41.2114 63.1435 41.0198 63.0423 40.9013 62.9891L40.7931 62.9113L40.7706 62.9022C40.7031 62.8916 40.6588 62.9528 40.6419 63.0764C40.5745 63.3809 40.5169 63.6154 40.4717 63.7741L40.4681 63.7863L40.4695 63.7993C40.4791 63.8955 40.492 63.9582 40.5113 63.9951C40.5263 64.0239 40.5648 64.0674 40.8465 64.2331C41.0713 64.3648 41.216 64.4263 41.3035 64.4263C41.399 64.4263 41.4664 64.299 41.5223 64.0096C41.5429 63.8528 41.5661 63.6959 41.591 63.5414C41.6006 63.4929 41.6248 63.365 41.5497 63.3237C41.5231 63.308 41.4935 63.2949 41.4626 63.2847Z" fill="#009ADA"/>
<path d="M49.0011 58.5148C49.4191 58.7959 49.4598 58.7959 49.4847 58.7959C49.5916 58.7959 49.6795 58.6842 49.7526 58.4534C49.8046 58.2757 49.8317 58.1252 49.8317 58.0051C49.8317 57.861 49.731 57.7269 49.5243 57.5936C49.2511 57.4171 49.0526 57.2562 48.9341 57.1185L48.8777 57.0522L48.8453 57.1366C48.5302 57.9632 48.5302 58.0138 48.5302 58.0408C48.5302 58.1181 48.5861 58.235 49.0011 58.5148Z" fill="#006FBA"/>
<path d="M50.2194 58.2938L50.22 58.2944C50.3846 58.3993 50.5508 58.502 50.7163 58.6025L50.7507 58.6245L50.779 58.5924C50.8711 58.4891 50.9504 58.3238 51.0201 58.0904C51.0825 57.9001 51.1124 57.7671 51.1124 57.6832C51.1124 57.5797 51.0072 57.4352 50.2425 57.0682L50.2217 57.0637C50.1622 57.0637 50.1046 57.1302 49.9799 57.4702C49.8439 57.8505 49.8439 57.8841 49.8439 57.9042C49.8439 57.9757 49.8882 58.0767 50.2194 58.2938Z" fill="#006FBA"/>
<path d="M56.6431 62.582L56.6187 62.5757C56.5555 62.5757 56.4943 62.6491 56.3717 63.024C56.3335 63.1438 56.3067 63.2305 56.2876 63.2942C56.2842 63.2711 56.2791 63.2544 56.2729 63.2423C56.2248 63.1513 56.1379 63.0711 56.0142 63.0037C55.8691 62.9209 55.7199 62.7955 55.5726 62.6286L55.5168 62.5658L55.4844 62.6479C55.2104 63.3497 55.1765 63.5073 55.1765 63.5664C55.1765 63.6388 55.2176 63.7515 55.5433 63.9759C55.843 64.1896 55.9022 64.2075 55.9343 64.2075C56.0431 64.2075 56.1321 64.0663 56.211 63.7627C56.2349 63.6715 56.2521 63.5975 56.2642 63.5361C56.312 63.6332 56.4881 63.797 57.0563 64.1569L57.0947 64.1807L57.1235 64.1436C57.2048 64.0356 57.2785 63.872 57.3494 63.6441C57.4111 63.4453 57.441 63.307 57.441 63.223C57.441 63.1262 57.3463 62.9744 56.6431 62.582Z" fill="#006FBA"/>
<path d="M56.2854 61.7868C56.5815 61.5985 56.804 61.4063 56.9481 61.2149C57.307 60.7354 57.4607 60.2315 57.4051 59.7148C57.3652 59.3659 57.1715 58.9599 56.8261 58.5084C56.4839 58.0705 56.3252 57.8355 56.2542 57.7107C56.3231 57.7182 56.3983 57.7229 56.4812 57.7229C56.6217 57.7229 56.6369 57.6303 56.6369 57.5898C56.6369 57.5125 56.5806 57.4229 56.4568 57.3052C56.1546 57.0497 55.891 56.8353 55.6794 56.6713C55.6284 56.621 55.5873 56.6241 55.5606 56.6344C55.4952 56.6608 55.4741 56.7578 55.4637 56.8306C55.4287 57.1372 55.4049 57.3806 55.3876 57.5631C55.3849 57.5985 55.3934 57.6303 55.4127 57.6541C55.4368 57.6844 55.4741 57.7012 55.5295 57.7064C55.6804 58.2002 55.9492 58.6987 56.3269 59.1895C56.7226 59.7066 56.9513 60.0503 57.0091 60.2114C57.0095 60.2156 57.0192 60.3101 56.5259 60.6205C56.1702 60.8392 55.8211 60.9634 55.4958 60.9867C55.3029 60.9751 55.0986 60.8886 54.8902 60.7318C54.6459 60.5411 54.5352 60.3445 54.5569 60.1449C54.5867 59.8623 54.6017 59.6504 54.6017 59.5148C54.6017 59.4505 54.5859 59.4013 54.5516 59.3696C54.5185 59.335 54.4685 59.3226 54.3954 59.3369L52.2777 60.2666C50.9241 60.8007 49.7238 61.0713 48.7106 61.0713C47.8072 61.0713 47.0954 60.9099 46.5994 60.5937C46.0838 60.2622 45.8288 59.8017 45.821 59.1851C45.8171 58.8544 45.8986 58.5146 46.0624 58.1776C46.1163 58.0646 46.0607 58 46.0343 57.9786C45.9999 57.9492 45.969 57.9473 45.9484 57.951C45.9163 57.9564 45.887 57.9801 45.8626 58.0209C45.7402 58.2216 45.6319 58.5034 45.5374 58.8614C45.4431 59.2183 45.3964 59.5274 45.3964 59.78C45.3964 60.595 45.6951 61.2238 46.2836 61.6493C46.8226 62.0354 47.5845 62.2307 48.5459 62.2307C49.4191 62.2307 50.4421 62.0184 51.5892 61.5985C52.4883 61.2686 53.3559 60.8567 54.1693 60.3754C54.1611 60.4648 54.1573 60.5535 54.1573 60.6387C54.1573 61.2207 54.3284 61.6425 54.6636 61.8915C54.7695 61.9725 54.9533 62.0723 55.2243 62.088C55.6954 62.114 56.0401 61.9408 56.2854 61.7868Z" fill="#006FBA"/>
<path d="M59.0907 60.9721C59.0931 60.8987 59.1149 60.844 59.1579 60.8064C59.2111 60.7604 59.282 60.7382 59.3695 60.7442C59.4963 60.7523 59.5951 60.8181 59.6703 60.9458C59.6976 60.9899 59.7223 61.0312 59.7456 61.0673C59.2909 61.0447 59.1406 60.9997 59.0907 60.9721ZM66.5265 49.7524C65.4079 49.4449 61.5642 51.7707 60.1668 52.8318C60.0909 52.8953 60.0178 52.9504 59.9489 53.0016C59.6021 53.2614 59.3695 53.4368 59.333 54.1519C59.3321 54.1524 59.3311 54.1524 59.3299 54.153C59.282 54.1718 59.2523 54.2334 59.2286 54.3717C59.2286 54.6721 59.2387 54.9133 59.2598 55.0796C59.2598 55.1256 59.2806 55.1996 59.4083 55.2112C59.659 55.7111 60.4173 56.5092 61.7233 57.6466C63.3034 59.0219 63.6863 59.4627 63.7297 59.5863C63.7297 59.6105 63.6891 59.7613 62.8262 60.352C62.1232 60.8351 61.5204 61.0807 61.0343 61.0807L61.0312 61.0826C60.9529 61.0845 60.8689 61.087 60.7768 61.087C60.6693 60.7227 60.4753 60.3756 60.1982 60.054C59.9139 59.7231 59.6858 59.5624 59.5001 59.5624C59.2452 59.5624 58.9996 59.7507 58.7692 60.1218C58.5443 60.4863 58.4279 60.879 58.4246 61.2908C58.4246 61.4477 58.4841 61.6103 58.6009 61.7724C58.6983 61.9136 58.8085 62.0134 58.926 62.0698C59.1304 62.1684 59.6188 62.2168 60.4173 62.218C60.4443 62.2881 60.468 62.3685 60.4848 62.4583C60.4693 62.511 60.2947 62.7973 58.5769 64.1353C57.8358 64.7117 56.5573 65.406 55.8764 65.7913C55.5582 65.9704 55.4502 66.0548 55.4144 66.0757C55.3263 66.1415 55.4264 66.1724 55.5756 66.1062C56.908 65.4744 57.536 65.3612 57.8261 65.3756C57.8331 65.3756 57.8403 65.3762 57.8472 65.3762C58.5329 65.3762 60.1868 63.6855 60.2609 63.609C60.5619 63.2335 60.7229 63.014 60.8093 62.4981C60.831 62.372 60.847 62.2788 60.8576 62.2174C60.9485 62.2168 61.1656 62.1981 61.1656 62.1981V62.1948C61.5985 62.1529 62.1222 61.9116 62.7248 61.4706C63.2735 61.0708 63.6009 60.7704 63.7245 60.5504C63.9244 60.1942 64.1488 59.4003 63.9467 58.6754C63.828 58.2506 63.1345 57.6203 62.0546 56.7408C60.9567 55.8548 60.5123 55.4378 60.3494 55.2442C60.4221 55.2541 60.478 55.2622 60.5174 55.2693C60.6228 55.2734 60.6842 55.2591 60.7171 55.2232C60.7357 55.2038 60.7457 55.1787 60.7457 55.1513C60.7457 55.0866 60.697 55.0132 60.4608 54.8598C60.329 54.7881 60.1999 54.7192 60.0735 54.6527C59.8807 54.5461 59.7207 54.4405 59.5976 54.3379C59.6009 54.3288 59.6048 54.322 59.6084 54.3159C59.969 53.6122 65.1613 51.0091 65.825 50.7951C66.1892 50.6602 66.439 50.6419 66.5303 50.7431C66.5801 50.7993 66.5836 50.9036 66.5415 51.0518C66.4728 51.2921 65.6417 52.8237 65.1804 53.6587C65.1668 53.6823 65.0957 53.7993 65.1269 53.8351C65.169 53.8828 65.2449 53.7742 65.2575 53.7551C65.4748 53.4057 66.9682 50.9921 66.9704 50.4626C66.9845 50.0299 66.8364 49.7972 66.5265 49.7524Z" fill="#006FBA"/>
<path d="M17.9819 73.4326V66.7843H19.1436C19.9517 68.5518 20.8195 70.0996 21.7118 71.5332C21.6864 71.2773 21.6782 71.0011 21.6782 70.7061V66.7843H22.7895V73.4326H21.6191C20.718 72.0644 19.9011 70.8021 19.0596 69.0642C19.085 69.4345 19.093 69.8141 19.093 70.194V73.4326H17.9819Z" fill="#009ADA"/>
<path d="M27.3358 73.4326H23.6649V66.7843H27.3358V67.9437H24.8686V69.4816H26.9736V70.64H24.8686V72.2738H27.3358V73.4326Z" fill="#009ADA"/>
<path d="M34.669 66.7843H35.8987C35.5783 68.998 35.023 71.6097 34.3069 73.4326H32.985C32.5723 72.2458 32.2021 70.8496 31.8908 69.2923C31.5707 70.8496 31.2087 72.2458 30.7872 73.4326H29.4656C28.7919 71.6097 28.1939 68.998 27.8825 66.7843H29.1036C29.3644 68.7886 29.8358 71.0397 30.1811 72.1504C30.5432 71.0397 31.1076 68.8556 31.3518 66.7843H32.4294C32.682 68.8556 33.2295 71.0397 33.5997 72.1504C33.9367 71.0397 34.4165 68.7886 34.669 66.7843Z" fill="#009ADA"/>
<path d="M38.365 70.7928C38.163 70.9447 37.9438 71.0874 37.7083 71.2286V73.4326H36.504V66.7841H37.7083V69.8713C38.8281 69.092 39.4848 68.1046 39.7374 66.7841H40.9414C40.6976 68.0376 40.1667 69.1208 39.2575 70.0422L41.2865 73.4326H39.9055L38.365 70.7928Z" fill="#006FBA"/>
<path d="M41.5227 66.7842H42.7261V70.6969C42.7261 71.7804 43.0968 72.3496 43.8641 72.3496C44.6289 72.3496 44.9919 71.7804 44.9919 70.6969V66.7842H46.1958V70.7929C46.1958 72.5677 45.3787 73.5469 43.8641 73.5469C42.3388 73.5469 41.5227 72.5677 41.5227 70.7929V66.7842Z" fill="#006FBA"/>
<path d="M53.5451 66.7843H54.7752C54.4553 68.998 53.8992 71.6097 53.1837 73.4326H51.8614C51.449 72.2458 51.0783 70.8496 50.7678 69.2923C50.4465 70.8496 50.0852 72.2458 49.6639 73.4326H48.3427C47.6683 71.6097 47.0709 68.998 46.7591 66.7843H47.9798C48.2407 68.7886 48.7113 71.0397 49.058 72.1504C49.4199 71.0397 49.9841 68.8556 50.2283 66.7843H51.3055C51.5588 68.8556 52.1055 71.0397 52.4768 72.1504C52.813 71.0397 53.293 68.7886 53.5451 66.7843Z" fill="#006FBA"/>
<path d="M56.1301 70.8116H57.7049C57.4182 69.7382 57.1495 68.7882 56.921 68.2282C56.6944 68.7882 56.4154 69.7382 56.1301 70.8116ZM58.0079 71.9696H55.836C55.709 72.455 55.5915 72.948 55.4808 73.4326H54.244C54.7832 71.2107 55.5405 68.5792 56.2896 66.7845H57.5446C58.2937 68.5792 59.0597 71.2012 59.5994 73.4326H58.3614C58.243 72.948 58.1252 72.455 58.0079 71.9696Z" fill="#006FBA"/>
<path d="M60.1624 66.7838H61.3674V73.4321H60.1624V66.7838Z" fill="#006FBA"/>
<path d="M64.76 67.9437V73.4326H63.5558V67.9437H61.9896V66.7849H66.3257V67.9437H64.76Z" fill="#006FBA"/>
</g>
</svg>
